HIERARCHY
ROOT Hips
{
	OFFSET 0.000000 0.000000 0.000000 
	CHANNELS 6 Xposition Yposition Zposition Yrotation Zrotation Xrotation 
	JOINT Lumbar
	{
		OFFSET 0.000000 0.000000 0.000000 
		CHANNELS 3 Zrotation Xrotation Yrotation
		JOINT Neck
		{
			OFFSET 0.000000 0.445665 0.000000 
			CHANNELS 3 Zrotation Xrotation Yrotation
			End Site
			{
				OFFSET 0.000000 0.227535 0.000000 
			}
		}
		JOINT RightShoulder
		{
			OFFSET 0.019635 0.377685 0.194865 
			CHANNELS 3 Zrotation Xrotation Yrotation
			JOINT RightElbow
			{
				OFFSET 0.000000 -0.243375 0.000000 
				CHANNELS 2 Zrotation Yrotation
				JOINT RightWrist
				{
					OFFSET 0.000000 -0.264825 0.000000 
					CHANNELS 2 Zrotation Xrotation
					End Site
					{
						OFFSET 0.006600 -0.176220 0.000990 
					}
				}
			}
		}
		JOINT LeftShoulder
		{
			OFFSET 0.019635 0.377685 -0.194865 
			CHANNELS 3 Zrotation Xrotation Yrotation
			JOINT LeftElbow
			{
				OFFSET 0.000000 -0.243375 0.000000 
				CHANNELS 2 Zrotation Yrotation
				JOINT LeftWrist
				{
					OFFSET 0.000000 -0.264825 0.000000 
					CHANNELS 2 Zrotation Xrotation
					End Site
					{
						OFFSET 0.006600 -0.176220 -0.000990 
					}
				}
			}
		}
	}
	JOINT RightHip
	{
		OFFSET 0.052140 -0.069960 0.075570 
		CHANNELS 3 Zrotation Xrotation Yrotation
		JOINT RightKnee
		{
			OFFSET 0.000000 -0.402270 0.000000 
			CHANNELS 1 Zrotation
			JOINT RightAnkle
			{
				OFFSET 0.000000 -0.404085 0.000000 
				CHANNELS 3 Zrotation Xrotation Yrotation
				End Site
				{
					OFFSET 0.204105 -0.089430 0.008415 
				}
			}
		}
	}
	JOINT LeftHip
	{
		OFFSET 0.052140 -0.069960 -0.075570 
		CHANNELS 3 Zrotation Xrotation Yrotation
		JOINT LeftKnee
		{
			OFFSET 0.000000 -0.402270 0.000000 
			CHANNELS 1 Zrotation
			JOINT LeftAnkle
			{
				OFFSET 0.000000 -0.404085 0.000000 
				CHANNELS 3 Zrotation Xrotation Yrotation
				End Site
				{
					OFFSET 0.204105 -0.089430 -0.008415 
				}
			}
		}
	}
}
MOTION
Frames: 16
Frame Time: 0.02
0.58641 -0.31121 0.53764 -172.94003 43.87232 -6.88952 13.24512 1.17803 -4.29452 -17.15137 25.69354 -2.11994 22.93351 -21.61055 55.59964 8.05585 104.43855 3.54266 7.91756 29.35407 25.29337 -55.63158 6.32714 -111.05408 10.45282 -5.19346 25.0816 -11.34054 -6.15878 -46.51152 -19.1431 -1.15185 -3.37205 30.40463 7.76045 -6.36308 -53.55036 -20.01525 1.61178 3.66515
0.58653 -0.31095 0.5376 -172.91628 43.98966 -6.81712 13.32294 1.20529 -4.29922 -17.06567 25.26794 -2.11994 23.16702 -21.59355 55.60417 8.07015 103.41624 3.47686 8.1887 30.2782 25.30138 -55.63156 6.4145 -111.2544 10.60979 -5.125 24.74851 -11.36648 -6.36998 -45.80141 -19.0498 -1.16784 -3.37572 30.1736 7.79132 -5.94839 -52.9919 -19.90934 1.64115 3.67501
0.58661 -0.31066 0.53762 -172.90351 44.09764 -6.74771 13.42361 1.27962 -4.34413 -16.99938 24.66211 -2.11994 23.45764 -21.55359 55.60707 8.09116 100.1024 3.05659 8.64523 31.19135 25.36226 -55.63165 6.66797 -111.12647 10.70474 -5.064 24.37071 -11.39794 -6.68408 -44.96482 -18.94157 -1.18886 -3.38128 29.92644 7.909 -5.35672 -52.304 -19.77565 1.67809 3.68734
0.5867 -0.31038 0.53761 -172.88687 44.20811 -6.67784 13.51469 1.33122 -4.37151 -16.91941 24.14694 -2.11994 23.7188 -21.52139 55.61067 8.11082 97.93187 2.8104 9.00381 32.09566 25.40157 -55.6317 6.85103 -111.14022 10.82198 -4.99776 24.01184 -11.4206 -6.94249 -44.16724 -18.844 -1.20665 -3.38571 29.68479 7.97814 -4.86725 -51.65193 -19.65805 1.70995 3.69785
0.58681 -0.31011 0.53759 -172.86529 44.32631 -6.60359 13.60188 1.38789 -4.39552 -16.85895 23.59381 -2.11994 23.99718 -21.50055 55.61452 8.12353 95.3695 2.515 9.41861 33.06893 25.42981 -55.63171 7.01059 -111.19592 10.96553 -4.93704 23.65927 -11.4694 -7.23535 -43.45069 -18.7286 -1.22918 -3.3917 29.45036 8.08389 -4.28832 -51.09773 -19.52563 1.74892 3.7114
0.58686 -0.30982 0.5376 -172.85633 44.42618 -6.53964 13.70293 1.44538 -4.4359 -16.76338 23.07714 -2.11994 24.25146 -21.4507 55.61742 8.15163 93.08084 2.2391 9.75961 33.8904 25.49351 -55.63183 7.25799 -111.08248 11.03995 -4.86825 23.28169 -11.46546 -7.48417 -42.5303 -18.64837 -1.24209 -3.39436 29.19704 8.13486 -3.85107 -50.30637 -19.41757 1.77471 3.71914
0.58675 -0.30948 0.5377 -172.88391 44.47648 -6.50036 13.83503 1.49392 -4.51515 -16.55981 22.70746 -2.11994 24.43589 -21.32474 55.61807 8.22805 91.8973 2.06111 9.86884 34.31318 25.64763 -55.63223 7.72378 -110.58121 10.92689 -4.76549 22.85913 -11.31132 -7.56471 -41.12356 -18.66263 -1.23207 -3.38996 28.8976 8.01084 -3.86983 -48.91868 -19.38396 1.76343 3.71084
0.58658 -0.30913 0.53782 -172.92311 44.50889 -6.47192 13.98051 1.54169 -4.60887 -16.3217 22.38049 -2.11994 24.59193 -21.17065 55.61781 8.31839 91.0945 1.92073 9.89505 34.57872 25.83485 -55.63273 8.26947 -109.92051 10.74819 -4.65618 22.41034 -11.10428 -7.604 -39.50648 -18.71833 -1.20909 -3.38038 28.57923 7.82922 -4.03351 -47.29144 -19.3761 1.73837 3.69654
0.58642 -0.30879 0.53794 -172.9541 44.55019 -6.44058 14.12118 1.58968 -4.69377 -16.10332 22.03264 -2.11994 24.75376 -21.03048 55.61798 8.39751 90.25424 1.79089 9.94774 34.90364 26.00345 -55.63317 8.76853 -109.33104 10.60697 -4.55679 21.96542 -10.92391 -7.67323 -37.95762 -18.75371 -1.19167 -3.3731 28.26851 7.67605 -4.11628 -45.75724 -19.35587 1.71887 3.68452
0.5863 -0.30843 0.53806 -172.9976 44.58776 -6.40092 14.25787 1.63985 -4.78967 -15.86765 21.68452 -2.11994 24.94753 -20.88473 55.61804 8.4975 88.7836 1.53578 10.05248 35.28041 26.18871 -55.63367 9.3177 -108.73235 10.43153 -4.42918 21.55401 -10.73365 -7.68855 -36.52502 -18.77711 -1.1849 -3.37142 27.96203 7.51698 -4.25513 -44.28771 -19.33626 1.70269 3.67427
0.5861 -0.30811 0.53816 -173.01794 44.62923 -6.38096 14.40497 1.68468 -4.86544 -15.66069 21.34967 -2.11994 25.0674 -20.74419 55.61811 8.55726 88.71983 1.5506 10.02902 35.51064 26.34681 -55.63407 9.77831 -108.12317 10.31236 -4.35764 21.06576 -10.55009 -7.81785 -34.79553 -18.85777 -1.14142 -3.35019 27.64141 7.35455 -4.31552 -42.62526 -19.32336 1.67612 3.65913
0.58566 -0.30791 0.53821 -172.96907 44.68385 -6.41404 14.58391 1.7149 -4.88297 -15.53159 21.04043 -2.11994 24.98878 -20.62519 55.61848 8.50248 92.68293 2.34184 9.65077 35.3853 26.41852 -55.63414 9.98275 -107.49134 10.36669 -4.45182 20.38704 -10.40907 -8.15884 -32.35909 -18.88888 -1.09924 -3.33385 27.29484 7.20365 -4.11489 -40.51463 -19.31563 1.62475 3.63105
0.58513 -0.30775 0.53823 -172.89692 44.74352 -6.46629 14.77149 1.73954 -4.87935 -15.43438 20.74427 -2.11994 24.83671 -20.51249 55.61889 8.40675 98.01681 3.39782 9.14925 35.11593 26.46214 -55.6341 10.09305 -106.86205 10.47984 -4.60095 19.63141 -10.27482 -8.63451 -29.62446 -19.00811 -1.00343 -3.28803 26.93297 7.04958 -3.83574 -38.2136 -19.31921 1.56312 3.59926
0.58467 -0.30757 0.53827 -172.83688 44.80212 -6.50895 14.95089 1.76657 -4.88467 -15.32883 20.44324 -2.11994 24.71889 -20.39678 55.61927 8.32971 102.5795 4.30772 8.71725 34.90556 26.52053 -55.63411 10.24033 -106.25485 10.56502 -4.71873 18.89848 -10.12978 -9.1248 -26.98145 -19.22304 -0.86508 -3.2169 26.57296 6.89225 -3.59557 -35.98385 -19.31735 1.506 3.56871
0.58412 -0.30738 0.53831 -172.77059 44.85453 -6.55583 15.14901 1.7943 -4.89348 -15.19582 20.13839 -2.11994 24.5965 -20.28053 55.61966 8.25262 107.77725 5.32681 8.22602 34.717 26.57157 -55.63412 10.41475 -105.54431 10.65312 -4.86298 18.20754 -10.01421 -9.30204 -24.49926 -18.88704 -1.00283 -3.30574 26.23475 6.75319 -3.3345 -33.81147 -19.3013 1.44966 3.5364
0.58372 -0.30723 0.53832 -172.7119 44.92177 -6.59815 15.30965 1.81913 -4.88966 -15.12841 19.84489 -2.11994 24.4665 -20.16748 55.62005 8.16599 111.97634 6.18178 7.82929 34.45082 26.63089 -55.63411 10.50957 -105.05103 10.74993 -4.9655 17.42225 -9.84112 -10.15321 -21.63547 -19.69295 -0.56038 -3.05856 25.8465 6.57561 -3.11142 -31.47573 -19.33767 1.38868 3.51126
